<?xml version="1.0" encoding="UTF-8"?>
<svg id="Livello_1" data-name="Livello 1" xmlns="http://www.w3.org/2000/svg" viewBox="0 0 500 500">
  <defs>
    <style>
      .cls-1 {
        fill: #182d3f;
      }

      .cls-2 {
        fill: #09500c;
      }

      .cls-3 {
        fill: #24455b;
      }

      .cls-4 {
        fill: #109901;
      }
    </style>
  </defs>
  <polygon class="cls-3" points="250 290.46 64.18 104.23 64.18 0 250 186.23 250 290.46"/>
  <path class="cls-4" d="m250,500c-102.62,0-185.82-83.19-185.82-185.82,0-.6,0-1.21,0-1.81h0v-101.44l75.14,72.88v30.79c0,58.83,49.55,106.53,110.68,106.53v78.87Z"/>
  <polygon class="cls-1" points="250 290.46 435.82 104.23 435.82 0 250 186.23 250 290.46"/>
  <path class="cls-2" d="m250,500c102.62,0,185.82-83.19,185.82-185.82,0-.6,0-1.21,0-1.81h0v-101.44s-75.14,72.88-75.14,72.88v28.56s0,2.23,0,2.23c0,58.83-49.55,106.53-110.68,106.53v78.87Z"/>
</svg>